<svg id="mermaid-svg" width="100%" xmlns="http://www.w3.org/2000/svg" class="flowchart" style="max-width: 1241.48046875px;" viewBox="0 0 1241.48046875 894" role="graphics-document document" aria-roledescription="flowchart-v2" xmlns:xlink="http://www.w3.org/1999/xlink"><style xmlns="http://www.w3.org/1999/xhtml">@import url("https://cdnjs.cloudflare.com/ajax/libs/font-awesome/6.7.2/css/all.min.css");</style><style>#mermaid-svg{font-family:"trebuchet ms",verdana,arial,sans-serif;font-size:16px;fill:#333;}@keyframes edge-animation-frame{from{stroke-dashoffset:0;}}@keyframes dash{to{stroke-dashoffset:0;}}#mermaid-svg .edge-animation-slow{stroke-dasharray:9,5!important;stroke-dashoffset:900;animation:dash 50s linear infinite;stroke-linecap:round;}#mermaid-svg .edge-animation-fast{stroke-dasharray:9,5!important;stroke-dashoffset:900;animation:dash 20s linear infinite;stroke-linecap:round;}#mermaid-svg .error-icon{fill:#552222;}#mermaid-svg .error-text{fill:#552222;stroke:#552222;}#mermaid-svg .edge-thickness-normal{stroke-width:1px;}#mermaid-svg .edge-thickness-thick{stroke-width:3.5px;}#mermaid-svg .edge-pattern-solid{stroke-dasharray:0;}#mermaid-svg .edge-thickness-invisible{stroke-width:0;fill:none;}#mermaid-svg .edge-pattern-dashed{stroke-dasharray:3;}#mermaid-svg .edge-pattern-dotted{stroke-dasharray:2;}#mermaid-svg .marker{fill:#333333;stroke:#333333;}#mermaid-svg .marker.cross{stroke:#333333;}#mermaid-svg svg{font-family:"trebuchet ms",verdana,arial,sans-serif;font-size:16px;}#mermaid-svg p{margin:0;}#mermaid-svg .label{font-family:"trebuchet ms",verdana,arial,sans-serif;color:#333;}#mermaid-svg .cluster-label text{fill:#333;}#mermaid-svg .cluster-label span{color:#333;}#mermaid-svg .cluster-label span p{background-color:transparent;}#mermaid-svg .label text,#mermaid-svg span{fill:#333;color:#333;}#mermaid-svg .node rect,#mermaid-svg .node circle,#mermaid-svg .node ellipse,#mermaid-svg .node polygon,#mermaid-svg .node path{fill:#ECECFF;stroke:#9370DB;stroke-width:1px;}#mermaid-svg .rough-node .label text,#mermaid-svg .node .label text,#mermaid-svg .image-shape .label,#mermaid-svg .icon-shape .label{text-anchor:middle;}#mermaid-svg .node .katex path{fill:#000;stroke:#000;stroke-width:1px;}#mermaid-svg .rough-node .label,#mermaid-svg .node .label,#mermaid-svg .image-shape .label,#mermaid-svg .icon-shape .label{text-align:center;}#mermaid-svg .node.clickable{cursor:pointer;}#mermaid-svg .root .anchor path{fill:#333333!important;stroke-width:0;stroke:#333333;}#mermaid-svg .arrowheadPath{fill:#333333;}#mermaid-svg .edgePath .path{stroke:#333333;stroke-width:2.0px;}#mermaid-svg .flowchart-link{stroke:#333333;fill:none;}#mermaid-svg .edgeLabel{background-color:rgba(232,232,232, 0.8);text-align:center;}#mermaid-svg .edgeLabel p{background-color:rgba(232,232,232, 0.8);}#mermaid-svg .edgeLabel rect{opacity:0.5;background-color:rgba(232,232,232, 0.8);fill:rgba(232,232,232, 0.8);}#mermaid-svg .labelBkg{background-color:rgba(232, 232, 232, 0.5);}#mermaid-svg .cluster rect{fill:#ffffde;stroke:#aaaa33;stroke-width:1px;}#mermaid-svg .cluster text{fill:#333;}#mermaid-svg .cluster span{color:#333;}#mermaid-svg div.mermaidTooltip{position:absolute;text-align:center;max-width:200px;padding:2px;font-family:"trebuchet ms",verdana,arial,sans-serif;font-size:12px;background:hsl(80, 100%, 96.2745098039%);border:1px solid #aaaa33;border-radius:2px;pointer-events:none;z-index:100;}#mermaid-svg .flowchartTitleText{text-anchor:middle;font-size:18px;fill:#333;}#mermaid-svg rect.text{fill:none;stroke-width:0;}#mermaid-svg .icon-shape,#mermaid-svg .image-shape{background-color:rgba(232,232,232, 0.8);text-align:center;}#mermaid-svg .icon-shape p,#mermaid-svg .image-shape p{background-color:rgba(232,232,232, 0.8);padding:2px;}#mermaid-svg .icon-shape rect,#mermaid-svg .image-shape rect{opacity:0.5;background-color:rgba(232,232,232, 0.8);fill:rgba(232,232,232, 0.8);}#mermaid-svg .label-icon{display:inline-block;height:1em;overflow:visible;vertical-align:-0.125em;}#mermaid-svg .node .label-icon path{fill:currentColor;stroke:revert;stroke-width:revert;}#mermaid-svg :root{--mermaid-font-family:"trebuchet ms",verdana,arial,sans-serif;}</style><g><marker id="mermaid-svg_flowchart-v2-pointEnd" class="marker flowchart-v2" viewBox="0 0 10 10" refX="5" refY="5" markerUnits="userSpaceOnUse" markerWidth="8" markerHeight="8" orient="auto"><path d="M 0 0 L 10 5 L 0 10 z" class="arrowMarkerPath" style="stroke-width: 1; stroke-dasharray: 1, 0;"/></marker><marker id="mermaid-svg_flowchart-v2-pointStart" class="marker flowchart-v2" viewBox="0 0 10 10" refX="4.5" refY="5" markerUnits="userSpaceOnUse" markerWidth="8" markerHeight="8" orient="auto"><path d="M 0 5 L 10 10 L 10 0 z" class="arrowMarkerPath" style="stroke-width: 1; stroke-dasharray: 1, 0;"/></marker><marker id="mermaid-svg_flowchart-v2-circleEnd" class="marker flowchart-v2" viewBox="0 0 10 10" refX="11" refY="5" markerUnits="userSpaceOnUse" markerWidth="11" markerHeight="11" orient="auto"><circle cx="5" cy="5" r="5" class="arrowMarkerPath" style="stroke-width: 1; stroke-dasharray: 1, 0;"/></marker><marker id="mermaid-svg_flowchart-v2-circleStart" class="marker flowchart-v2" viewBox="0 0 10 10" refX="-1" refY="5" markerUnits="userSpaceOnUse" markerWidth="11" markerHeight="11" orient="auto"><circle cx="5" cy="5" r="5" class="arrowMarkerPath" style="stroke-width: 1; stroke-dasharray: 1, 0;"/></marker><marker id="mermaid-svg_flowchart-v2-crossEnd" class="marker cross flowchart-v2" viewBox="0 0 11 11" refX="12" refY="5.2" markerUnits="userSpaceOnUse" markerWidth="11" markerHeight="11" orient="auto"><path d="M 1,1 l 9,9 M 10,1 l -9,9" class="arrowMarkerPath" style="stroke-width: 2; stroke-dasharray: 1, 0;"/></marker><marker id="mermaid-svg_flowchart-v2-crossStart" class="marker cross flowchart-v2" viewBox="0 0 11 11" refX="-1" refY="5.2" markerUnits="userSpaceOnUse" markerWidth="11" markerHeight="11" orient="auto"><path d="M 1,1 l 9,9 M 10,1 l -9,9" class="arrowMarkerPath" style="stroke-width: 2; stroke-dasharray: 1, 0;"/></marker><g class="root"><g class="clusters"><g class="cluster " id="Support" data-look="classic"><rect style="fill:#f3e5f5 !important;stroke:#7b1fa2 !important" x="8" y="8" width="835.60546875" height="208"/><g class="cluster-label " transform="translate(402.912109375, 8)"><foreignObject width="45.78125" height="24"><div xmlns="http://www.w3.org/1999/xhtml" style="display: table-cell; white-space: nowrap; line-height: 1.5; max-width: 200px; text-align: center;"><span class="nodeLabel "><p>Hỗ trợ</p></span></div></foreignObject></g></g><g class="cluster " id="Output" data-look="classic"><rect style="fill:#e8f5e9 !important;stroke:#2e7d32 !important" x="8" y="782" width="1225.48046875" height="104"/><g class="cluster-label " transform="translate(596.177734375, 782)"><foreignObject width="49.125" height="24"><div xmlns="http://www.w3.org/1999/xhtml" style="display: table-cell; white-space: nowrap; line-height: 1.5; max-width: 200px; text-align: center;"><span class="nodeLabel "><p>Đầu ra</p></span></div></foreignObject></g></g><g class="cluster " id="Core" data-look="classic"><rect style="fill:#e1f5fe !important;stroke:#0288d1 !important;stroke-width:2px !important" x="95.1484375" y="420" width="541.140625" height="312"/><g class="cluster-label " transform="translate(317.6875, 420)"><foreignObject width="96.0625" height="24"><div xmlns="http://www.w3.org/1999/xhtml" style="display: table-cell; white-space: nowrap; line-height: 1.5; max-width: 200px; text-align: center;"><span class="nodeLabel "><p>Core Pipeline</p></span></div></foreignObject></g></g><g class="cluster " id="Input" data-look="classic"><rect style="fill:#fff3e0 !important;stroke:#ff6f00 !important" x="223.73828125" y="266" width="485.078125" height="104"/><g class="cluster-label " transform="translate(435.92578125, 266)"><foreignObject width="60.703125" height="24"><div xmlns="http://www.w3.org/1999/xhtml" style="display: table-cell; white-space: nowrap; line-height: 1.5; max-width: 200px; text-align: center;"><span class="nodeLabel "><p>Đầu vào</p></span></div></foreignObject></g></g></g><g class="edgePaths"><path d="M588.379,345L588.379,349.167C588.379,353.333,588.379,361.667,588.379,370C588.379,378.333,588.379,386.667,588.379,395C588.379,403.333,588.379,411.667,580.496,419.706C572.613,427.745,556.847,435.491,548.964,439.364L541.081,443.236" id="L_V_T_0" class=" edge-thickness-normal edge-pattern-solid edge-thickness-normal edge-pattern-solid flowchart-link" style=";" data-edge="true" data-et="edge" data-id="L_V_T_0" data-points="W3sieCI6NTg4LjM3ODkwNjI1LCJ5IjozNDV9LHsieCI6NTg4LjM3ODkwNjI1LCJ5IjozNzB9LHsieCI6NTg4LjM3ODkwNjI1LCJ5IjozOTV9LHsieCI6NTg4LjM3ODkwNjI1LCJ5Ijo0MjB9LHsieCI6NTM3LjQ5MDYwOTk3NTk2MTUsInkiOjQ0NX1d" marker-end="url(#mermaid-svg_flowchart-v2-pointEnd)"/><path d="M410.306,345L419.208,349.167C428.111,353.333,445.915,361.667,454.817,370C463.719,378.333,463.719,386.667,463.719,395C463.719,403.333,463.719,411.667,464.999,419.373C466.28,427.08,468.841,434.159,470.122,437.699L471.402,441.239" id="L_M_T_0" class=" edge-thickness-normal edge-pattern-solid edge-thickness-normal edge-pattern-solid flowchart-link" style=";" data-edge="true" data-et="edge" data-id="L_M_T_0" data-points="W3sieCI6NDEwLjMwNjQxNTI2NDQyMzEsInkiOjM0NX0seyJ4Ijo0NjMuNzE4NzUsInkiOjM3MH0seyJ4Ijo0NjMuNzE4NzUsInkiOjM5NX0seyJ4Ijo0NjMuNzE4NzUsInkiOjQyMH0seyJ4Ijo0NzIuNzYzMjIxMTUzODQ2MTMsInkiOjQ0NX1d" marker-end="url(#mermaid-svg_flowchart-v2-pointEnd)"/><path d="M329.546,345L325.985,349.167C322.424,353.333,315.302,361.667,300.631,370C285.961,378.333,263.742,386.667,252.633,395C241.523,403.333,241.523,411.667,241.523,419.333C241.523,427,241.523,434,241.523,437.5L241.523,441" id="L_M_KP2_0" class=" edge-thickness-normal edge-pattern-solid edge-thickness-normal edge-pattern-solid flowchart-link" style=";" data-edge="true" data-et="edge" data-id="L_M_KP2_0" data-points="W3sieCI6MzI5LjU0NTc0ODE5NzExNTM2LCJ5IjozNDV9LHsieCI6MzA4LjE3OTY4NzUsInkiOjM3MH0seyJ4IjoyNDEuNTIzNDM3NSwieSI6Mzk1fSx7IngiOjI0MS41MjM0Mzc1LCJ5Ijo0MjB9LHsieCI6MjQxLjUyMzQzNzUsInkiOjQ0NX1d" marker-end="url(#mermaid-svg_flowchart-v2-pointEnd)"/><path d="M482.531,499L482.531,503.167C482.531,507.333,482.531,515.667,474.219,523.718C465.906,531.769,449.281,539.538,440.969,543.422L432.656,547.307" id="L_T_E_0" class=" edge-thickness-normal edge-pattern-solid edge-thickness-normal edge-pattern-solid flowchart-link" style=";" data-edge="true" data-et="edge" data-id="L_T_E_0" data-points="W3sieCI6NDgyLjUzMTI1LCJ5Ijo0OTl9LHsieCI6NDgyLjUzMTI1LCJ5Ijo1MjR9LHsieCI6NDI5LjAzMjUyNzA0MzI2OTIsInkiOjU0OX1d" marker-end="url(#mermaid-svg_flowchart-v2-pointEnd)"/><path d="M241.523,499L241.523,503.167C241.523,507.333,241.523,515.667,251.3,523.752C261.076,531.837,280.628,539.675,290.405,543.593L300.181,547.512" id="L_KP2_E_0" class=" edge-thickness-normal edge-pattern-solid edge-thickness-normal edge-pattern-solid flowchart-link" style=";" data-edge="true" data-et="edge" data-id="L_KP2_E_0" data-points="W3sieCI6MjQxLjUyMzQzNzUsInkiOjQ5OX0seyJ4IjoyNDEuNTIzNDM3NSwieSI6NTI0fSx7IngiOjMwMy44OTM4NTUxNjgyNjkyLCJ5Ijo1NDl9XQ==" marker-end="url(#mermaid-svg_flowchart-v2-pointEnd)"/><path d="M371.254,603L371.254,607.167C371.254,611.333,371.254,619.667,371.254,627.333C371.254,635,371.254,642,371.254,645.5L371.254,649" id="L_E_A_0" class=" edge-thickness-normal edge-pattern-solid edge-thickness-normal edge-pattern-solid flowchart-link" style=";" data-edge="true" data-et="edge" data-id="L_E_A_0" data-points="W3sieCI6MzcxLjI1MzkwNjI1LCJ5Ijo2MDN9LHsieCI6MzcxLjI1MzkwNjI1LCJ5Ijo2Mjh9LHsieCI6MzcxLjI1MzkwNjI1LCJ5Ijo2NTN9XQ==" marker-end="url(#mermaid-svg_flowchart-v2-pointEnd)"/><path d="M352.621,87L352.621,91.167C352.621,95.333,352.621,103.667,352.621,111.333C352.621,119,352.621,126,352.621,129.5L352.621,133" id="L_CL2_TR2_0" class=" edge-thickness-normal edge-pattern-solid edge-thickness-normal edge-pattern-solid flowchart-link" style=";" data-edge="true" data-et="edge" data-id="L_CL2_TR2_0" data-points="W3sieCI6MzUyLjYyMTA5Mzc1LCJ5Ijo4N30seyJ4IjozNTIuNjIxMDkzNzUsInkiOjExMn0seyJ4IjozNTIuNjIxMDkzNzUsInkiOjEzN31d" marker-end="url(#mermaid-svg_flowchart-v2-pointEnd)"/><path d="M352.621,191L352.621,195.167C352.621,199.333,352.621,207.667,352.621,216C352.621,224.333,352.621,232.667,352.621,241C352.621,249.333,352.621,257.667,352.621,265.333C352.621,273,352.621,280,352.621,283.5L352.621,287" id="L_TR2_M_0" class=" edge-thickness-normal edge-pattern-solid edge-thickness-normal edge-pattern-solid flowchart-link" style=";" data-edge="true" data-et="edge" data-id="L_TR2_M_0" data-points="W3sieCI6MzUyLjYyMTA5Mzc1LCJ5IjoxOTF9LHsieCI6MzUyLjYyMTA5Mzc1LCJ5IjoyMTZ9LHsieCI6MzUyLjYyMTA5Mzc1LCJ5IjoyNDF9LHsieCI6MzUyLjYyMTA5Mzc1LCJ5IjoyNjZ9LHsieCI6MzUyLjYyMTA5Mzc1LCJ5IjoyOTF9XQ==" marker-end="url(#mermaid-svg_flowchart-v2-pointEnd)"/><path d="M748.816,191L748.816,195.167C748.816,199.333,748.816,207.667,748.816,216C748.816,224.333,748.816,232.667,748.816,241C748.816,249.333,748.816,257.667,748.816,270.5C748.816,283.333,748.816,300.667,748.816,318C748.816,335.333,748.816,352.667,748.816,365.5C748.816,378.333,748.816,386.667,748.816,395C748.816,403.333,748.816,411.667,748.816,424.5C748.816,437.333,748.816,454.667,748.816,472C748.816,489.333,748.816,506.667,748.816,524C748.816,541.333,748.816,558.667,748.816,576C748.816,593.333,748.816,610.667,748.816,628C748.816,645.333,748.816,662.667,748.816,680C748.816,697.333,748.816,714.667,748.816,727.5C748.816,740.333,748.816,748.667,748.816,757C748.816,765.333,748.816,773.667,748.816,781.333C748.816,789,748.816,796,748.816,799.5L748.816,803" id="L_AN_Stub_0" class=" edge-thickness-normal edge-pattern-solid edge-thickness-normal edge-pattern-solid flowchart-link" style=";" data-edge="true" data-et="edge" data-id="L_AN_Stub_0" data-points="W3sieCI6NzQ4LjgxNjQwNjI1LCJ5IjoxOTF9LHsieCI6NzQ4LjgxNjQwNjI1LCJ5IjoyMTZ9LHsieCI6NzQ4LjgxNjQwNjI1LCJ5IjoyNDF9LHsieCI6NzQ4LjgxNjQwNjI1LCJ5IjoyNjZ9LHsieCI6NzQ4LjgxNjQwNjI1LCJ5IjozMTh9LHsieCI6NzQ4LjgxNjQwNjI1LCJ5IjozNzB9LHsieCI6NzQ4LjgxNjQwNjI1LCJ5IjozOTV9LHsieCI6NzQ4LjgxNjQwNjI1LCJ5Ijo0MjB9LHsieCI6NzQ4LjgxNjQwNjI1LCJ5Ijo0NzJ9LHsieCI6NzQ4LjgxNjQwNjI1LCJ5Ijo1MjR9LHsieCI6NzQ4LjgxNjQwNjI1LCJ5Ijo1NzZ9LHsieCI6NzQ4LjgxNjQwNjI1LCJ5Ijo2Mjh9LHsieCI6NzQ4LjgxNjQwNjI1LCJ5Ijo2ODB9LHsieCI6NzQ4LjgxNjQwNjI1LCJ5Ijo3MzJ9LHsieCI6NzQ4LjgxNjQwNjI1LCJ5Ijo3NTd9LHsieCI6NzQ4LjgxNjQwNjI1LCJ5Ijo3ODJ9LHsieCI6NzQ4LjgxNjQwNjI1LCJ5Ijo4MDd9XQ==" marker-end="url(#mermaid-svg_flowchart-v2-pointEnd)"/><path d="M738.432,191L736.829,195.167C735.227,199.333,732.022,207.667,730.419,216C728.816,224.333,728.816,232.667,728.816,241C728.816,249.333,728.816,257.667,728.816,270.5C728.816,283.333,728.816,300.667,728.816,318C728.816,335.333,728.816,352.667,728.816,365.5C728.816,378.333,728.816,386.667,728.816,395C728.816,403.333,728.816,411.667,728.816,424.5C728.816,437.333,728.816,454.667,728.816,472C728.816,489.333,728.816,506.667,728.816,524C728.816,541.333,728.816,558.667,728.816,576C728.816,593.333,728.816,610.667,728.816,628C728.816,645.333,728.816,662.667,728.816,680C728.816,697.333,728.816,714.667,728.816,727.5C728.816,740.333,728.816,748.667,728.816,757C728.816,765.333,728.816,773.667,682.871,784.184C636.926,794.702,545.036,807.403,499.091,813.754L453.146,820.105" id="L_AN_VOut_0" class=" edge-thickness-normal edge-pattern-solid edge-thickness-normal edge-pattern-solid flowchart-link" style=";" data-edge="true" data-et="edge" data-id="L_AN_VOut_0" data-points="W3sieCI6NzM4LjQzMTc5MDg2NTM4NDYsInkiOjE5MX0seyJ4Ijo3MjguODE2NDA2MjUsInkiOjIxNn0seyJ4Ijo3MjguODE2NDA2MjUsInkiOjI0MX0seyJ4Ijo3MjguODE2NDA2MjUsInkiOjI2Nn0seyJ4Ijo3MjguODE2NDA2MjUsInkiOjMxOH0seyJ4Ijo3MjguODE2NDA2MjUsInkiOjM3MH0seyJ4Ijo3MjguODE2NDA2MjUsInkiOjM5NX0seyJ4Ijo3MjguODE2NDA2MjUsInkiOjQyMH0seyJ4Ijo3MjguODE2NDA2MjUsInkiOjQ3Mn0seyJ4Ijo3MjguODE2NDA2MjUsInkiOjUyNH0seyJ4Ijo3MjguODE2NDA2MjUsInkiOjU3Nn0seyJ4Ijo3MjguODE2NDA2MjUsInkiOjYyOH0seyJ4Ijo3MjguODE2NDA2MjUsInkiOjY4MH0seyJ4Ijo3MjguODE2NDA2MjUsInkiOjczMn0seyJ4Ijo3MjguODE2NDA2MjUsInkiOjc1N30seyJ4Ijo3MjguODE2NDA2MjUsInkiOjc4Mn0seyJ4Ijo0NDkuMTgzNTkzNzUsInkiOjgyMC42NTI1NDUwMTI3NzE4fV0=" marker-end="url(#mermaid-svg_flowchart-v2-pointEnd)"/><path d="M371.254,707L371.254,711.167C371.254,715.333,371.254,723.667,371.254,732C371.254,740.333,371.254,748.667,371.254,756.333C371.254,764,371.254,771,371.254,774.5L371.254,778" id="L_A_Output_0" class=" edge-thickness-normal edge-pattern-solid edge-thickness-normal edge-pattern-solid flowchart-link" style=";" data-edge="true" data-et="edge" data-id="L_A_Output_0" data-points="W3sieCI6MzcxLjI1MzkwNjI1LCJ5Ijo3MDd9LHsieCI6MzcxLjI1MzkwNjI1LCJ5Ijo3MzJ9LHsieCI6MzcxLjI1MzkwNjI1LCJ5Ijo3NTd9LHsieCI6MzcxLjI1MzkwNjI1LCJ5Ijo3ODJ9LHsieCI6MzYyLjI5NTgyMzMxNzMwNzcsInkiOjgwN31d" marker-end="url(#mermaid-svg_flowchart-v2-pointEnd)"/><path d="M172.212,191L173.024,195.167C173.836,199.333,175.459,207.667,176.27,216C177.082,224.333,177.082,232.667,177.082,241C177.082,249.333,177.082,257.667,177.082,270.5C177.082,283.333,177.082,300.667,177.082,318C177.082,335.333,177.082,352.667,206.339,365.5C235.595,378.333,294.108,386.667,323.365,394.333C352.621,402,352.621,409,352.621,412.5L352.621,416" id="L_WEB2_Core_0" class=" edge-thickness-normal edge-pattern-solid edge-thickness-normal edge-pattern-solid flowchart-link" style=";" data-edge="true" data-et="edge" data-id="L_WEB2_Core_0" data-points="W3sieCI6MTcyLjIxMjM2NDc4MzY1Mzg0LCJ5IjoxOTF9LHsieCI6MTc3LjA4MjAzMTI1LCJ5IjoyMTZ9LHsieCI6MTc3LjA4MjAzMTI1LCJ5IjoyNDF9LHsieCI6MTc3LjA4MjAzMTI1LCJ5IjoyNjZ9LHsieCI6MTc3LjA4MjAzMTI1LCJ5IjozMTh9LHsieCI6MTc3LjA4MjAzMTI1LCJ5IjozNzB9LHsieCI6MzUyLjYyMTA5Mzc1LCJ5IjozOTV9LHsieCI6MzUyLjYyMTA5Mzc1LCJ5Ijo0MjB9LHsieCI6NDIxLjcxMDkzNzUsInkiOjQ0Ny42NTUwNTAwNjQ2NDgwNH1d" marker-end="url(#mermaid-svg_flowchart-v2-pointEnd)"/><path d="M118.567,191L111.1,195.167C103.633,199.333,88.7,207.667,81.233,216C73.766,224.333,73.766,232.667,73.766,241C73.766,249.333,73.766,257.667,73.766,270.5C73.766,283.333,73.766,300.667,73.766,318C73.766,335.333,73.766,352.667,73.766,365.5C73.766,378.333,73.766,386.667,73.766,395C73.766,403.333,73.766,411.667,73.766,424.5C73.766,437.333,73.766,454.667,73.766,472C73.766,489.333,73.766,506.667,73.766,524C73.766,541.333,73.766,558.667,73.766,576C73.766,593.333,73.766,610.667,73.766,628C73.766,645.333,73.766,662.667,73.766,680C73.766,697.333,73.766,714.667,73.766,727.5C73.766,740.333,73.766,748.667,73.766,756.333C73.766,764,73.766,771,73.766,774.5L73.766,778" id="L_WEB2_Output_0" class=" edge-thickness-normal edge-pattern-solid edge-thickness-normal edge-pattern-solid flowchart-link" style=";" data-edge="true" data-et="edge" data-id="L_WEB2_Output_0" data-points="W3sieCI6MTE4LjU2NzMwNzY5MjMwNzcsInkiOjE5MX0seyJ4Ijo3My43NjU2MjUsInkiOjIxNn0seyJ4Ijo3My43NjU2MjUsInkiOjI0MX0seyJ4Ijo3My43NjU2MjUsInkiOjI2Nn0seyJ4Ijo3My43NjU2MjUsInkiOjMxOH0seyJ4Ijo3My43NjU2MjUsInkiOjM3MH0seyJ4Ijo3My43NjU2MjUsInkiOjM5NX0seyJ4Ijo3My43NjU2MjUsInkiOjQyMH0seyJ4Ijo3My43NjU2MjUsInkiOjQ3Mn0seyJ4Ijo3My43NjU2MjUsInkiOjUyNH0seyJ4Ijo3My43NjU2MjUsInkiOjU3Nn0seyJ4Ijo3My43NjU2MjUsInkiOjYyOH0seyJ4Ijo3My43NjU2MjUsInkiOjY4MH0seyJ4Ijo3My43NjU2MjUsInkiOjczMn0seyJ4Ijo3My43NjU2MjUsInkiOjc1N30seyJ4Ijo3My43NjU2MjUsInkiOjc4Mn0seyJ4IjoyNTYuMDU4NTkzNzUsInkiOjgxNS45OTMzNjAxMzU1OTg5fV0=" marker-end="url(#mermaid-svg_flowchart-v2-pointEnd)"/></g><g class="edgeLabels"><g class="edgeLabel"><g class="label" data-id="L_V_T_0" transform="translate(0, 0)"><foreignObject width="0" height="0"><div xmlns="http://www.w3.org/1999/xhtml" class="labelBkg" style="display: table-cell; white-space: nowrap; line-height: 1.5; max-width: 200px; text-align: center;"><span class="edgeLabel "></span></div></foreignObject></g></g><g class="edgeLabel"><g class="label" data-id="L_M_T_0" transform="translate(0, 0)"><foreignObject width="0" height="0"><div xmlns="http://www.w3.org/1999/xhtml" class="labelBkg" style="display: table-cell; white-space: nowrap; line-height: 1.5; max-width: 200px; text-align: center;"><span class="edgeLabel "></span></div></foreignObject></g></g><g class="edgeLabel"><g class="label" data-id="L_M_KP2_0" transform="translate(0, 0)"><foreignObject width="0" height="0"><div xmlns="http://www.w3.org/1999/xhtml" class="labelBkg" style="display: table-cell; white-space: nowrap; line-height: 1.5; max-width: 200px; text-align: center;"><span class="edgeLabel "></span></div></foreignObject></g></g><g class="edgeLabel"><g class="label" data-id="L_T_E_0" transform="translate(0, 0)"><foreignObject width="0" height="0"><div xmlns="http://www.w3.org/1999/xhtml" class="labelBkg" style="display: table-cell; white-space: nowrap; line-height: 1.5; max-width: 200px; text-align: center;"><span class="edgeLabel "></span></div></foreignObject></g></g><g class="edgeLabel"><g class="label" data-id="L_KP2_E_0" transform="translate(0, 0)"><foreignObject width="0" height="0"><div xmlns="http://www.w3.org/1999/xhtml" class="labelBkg" style="display: table-cell; white-space: nowrap; line-height: 1.5; max-width: 200px; text-align: center;"><span class="edgeLabel "></span></div></foreignObject></g></g><g class="edgeLabel"><g class="label" data-id="L_E_A_0" transform="translate(0, 0)"><foreignObject width="0" height="0"><div xmlns="http://www.w3.org/1999/xhtml" class="labelBkg" style="display: table-cell; white-space: nowrap; line-height: 1.5; max-width: 200px; text-align: center;"><span class="edgeLabel "></span></div></foreignObject></g></g><g class="edgeLabel"><g class="label" data-id="L_CL2_TR2_0" transform="translate(0, 0)"><foreignObject width="0" height="0"><div xmlns="http://www.w3.org/1999/xhtml" class="labelBkg" style="display: table-cell; white-space: nowrap; line-height: 1.5; max-width: 200px; text-align: center;"><span class="edgeLabel "></span></div></foreignObject></g></g><g class="edgeLabel"><g class="label" data-id="L_TR2_M_0" transform="translate(0, 0)"><foreignObject width="0" height="0"><div xmlns="http://www.w3.org/1999/xhtml" class="labelBkg" style="display: table-cell; white-space: nowrap; line-height: 1.5; max-width: 200px; text-align: center;"><span class="edgeLabel "></span></div></foreignObject></g></g><g class="edgeLabel"><g class="label" data-id="L_AN_Stub_0" transform="translate(0, 0)"><foreignObject width="0" height="0"><div xmlns="http://www.w3.org/1999/xhtml" class="labelBkg" style="display: table-cell; white-space: nowrap; line-height: 1.5; max-width: 200px; text-align: center;"><span class="edgeLabel "></span></div></foreignObject></g></g><g class="edgeLabel"><g class="label" data-id="L_AN_VOut_0" transform="translate(0, 0)"><foreignObject width="0" height="0"><div xmlns="http://www.w3.org/1999/xhtml" class="labelBkg" style="display: table-cell; white-space: nowrap; line-height: 1.5; max-width: 200px; text-align: center;"><span class="edgeLabel "></span></div></foreignObject></g></g><g class="edgeLabel"><g class="label" data-id="L_A_Output_0" transform="translate(0, 0)"><foreignObject width="0" height="0"><div xmlns="http://www.w3.org/1999/xhtml" class="labelBkg" style="display: table-cell; white-space: nowrap; line-height: 1.5; max-width: 200px; text-align: center;"><span class="edgeLabel "></span></div></foreignObject></g></g><g class="edgeLabel"><g class="label" data-id="L_WEB2_Core_0" transform="translate(0, 0)"><foreignObject width="0" height="0"><div xmlns="http://www.w3.org/1999/xhtml" class="labelBkg" style="display: table-cell; white-space: nowrap; line-height: 1.5; max-width: 200px; text-align: center;"><span class="edgeLabel "></span></div></foreignObject></g></g><g class="edgeLabel"><g class="label" data-id="L_WEB2_Output_0" transform="translate(0, 0)"><foreignObject width="0" height="0"><div xmlns="http://www.w3.org/1999/xhtml" class="labelBkg" style="display: table-cell; white-space: nowrap; line-height: 1.5; max-width: 200px; text-align: center;"><span class="edgeLabel "></span></div></foreignObject></g></g></g><g class="nodes"><g class="node default  " id="flowchart-V-0" transform="translate(588.37890625, 318)"><rect class="basic label-container" style="" x="-85.4375" y="-27" width="170.875" height="54"/><g class="label" style="" transform="translate(-55.4375, -12)"><rect/><foreignObject width="110.875" height="24"><div xmlns="http://www.w3.org/1999/xhtml" style="display: table-cell; white-space: nowrap; line-height: 1.5; max-width: 200px; text-align: center;"><span class="nodeLabel "><p>Video File .mp4</p></span></div></foreignObject></g></g><g class="node default  " id="flowchart-M-1" transform="translate(352.62109375, 318)"><rect class="basic label-container" style="" x="-93.8828125" y="-27" width="187.765625" height="54"/><g class="label" style="" transform="translate(-63.8828125, -12)"><rect/><foreignObject width="127.765625" height="24"><div xmlns="http://www.w3.org/1999/xhtml" style="display: table-cell; white-space: nowrap; line-height: 1.5; max-width: 200px; text-align: center;"><span class="nodeLabel "><p>Model Weights .pt</p></span></div></foreignObject></g></g><g class="node default  " id="flowchart-T-2" transform="translate(482.53125, 472)"><rect class="basic label-container" style="" x="-60.8203125" y="-27" width="121.640625" height="54"/><g class="label" style="" transform="translate(-30.8203125, -12)"><rect/><foreignObject width="61.640625" height="24"><div xmlns="http://www.w3.org/1999/xhtml" style="display: table-cell; white-space: nowrap; line-height: 1.5; max-width: 200px; text-align: center;"><span class="nodeLabel "><p>Trackers</p></span></div></foreignObject></g></g><g class="node default  " id="flowchart-E-3" transform="translate(371.25390625, 576)"><rect class="basic label-container" style="" x="-67.7890625" y="-27" width="135.578125" height="54"/><g class="label" style="" transform="translate(-37.7890625, -12)"><rect/><foreignObject width="75.578125" height="24"><div xmlns="http://www.w3.org/1999/xhtml" style="display: table-cell; white-space: nowrap; line-height: 1.5; max-width: 200px; text-align: center;"><span class="nodeLabel "><p>Estimators</p></span></div></foreignObject></g></g><g class="node default  " id="flowchart-A-4" transform="translate(371.25390625, 680)"><rect class="basic label-container" style="" x="-61.125" y="-27" width="122.25" height="54"/><g class="label" style="" transform="translate(-31.125, -12)"><rect/><foreignObject width="62.25" height="24"><div xmlns="http://www.w3.org/1999/xhtml" style="display: table-cell; white-space: nowrap; line-height: 1.5; max-width: 200px; text-align: center;"><span class="nodeLabel "><p>Asigners</p></span></div></foreignObject></g></g><g class="node default  " id="flowchart-KP2-5" transform="translate(241.5234375, 472)"><rect class="basic label-container" style="" x="-111.375" y="-27" width="222.75" height="54"/><g class="label" style="" transform="translate(-81.375, -12)"><rect/><foreignObject width="162.75" height="24"><div xmlns="http://www.w3.org/1999/xhtml" style="display: table-cell; white-space: nowrap; line-height: 1.5; max-width: 200px; text-align: center;"><span class="nodeLabel "><p>PitchKeypoint Detector</p></span></div></foreignObject></g></g><g class="node default  " id="flowchart-VOut-6" transform="translate(352.62109375, 834)"><rect class="basic label-container" style="" x="-96.5625" y="-27" width="193.125" height="54"/><g class="label" style="" transform="translate(-66.5625, -12)"><rect/><foreignObject width="133.125" height="24"><div xmlns="http://www.w3.org/1999/xhtml" style="display: table-cell; white-space: nowrap; line-height: 1.5; max-width: 200px; text-align: center;"><span class="nodeLabel "><p>Video Output .mp4</p></span></div></foreignObject></g></g><g class="node default  " id="flowchart-Stub-7" transform="translate(748.81640625, 834)"><rect class="basic label-container" style="" x="-65.1328125" y="-27" width="130.265625" height="54"/><g class="label" style="" transform="translate(-35.1328125, -12)"><rect/><foreignObject width="70.265625" height="24"><div xmlns="http://www.w3.org/1999/xhtml" style="display: table-cell; white-space: nowrap; line-height: 1.5; max-width: 200px; text-align: center;"><span class="nodeLabel "><p>Stubs .pkl</p></span></div></foreignObject></g></g><g class="node default  " id="flowchart-HMap-8" transform="translate(944.20703125, 834)"><rect class="basic label-container" style="" x="-80.2578125" y="-27" width="160.515625" height="54"/><g class="label" style="" transform="translate(-50.2578125, -12)"><rect/><foreignObject width="100.515625" height="24"><div xmlns="http://www.w3.org/1999/xhtml" style="display: table-cell; white-space: nowrap; line-height: 1.5; max-width: 200px; text-align: center;"><span class="nodeLabel "><p>Heatmap .png</p></span></div></foreignObject></g></g><g class="node default  " id="flowchart-Stats-9" transform="translate(1136.47265625, 834)"><rect class="basic label-container" style="" x="-62.0078125" y="-27" width="124.015625" height="54"/><g class="label" style="" transform="translate(-32.0078125, -12)"><rect/><foreignObject width="64.015625" height="24"><div xmlns="http://www.w3.org/1999/xhtml" style="display: table-cell; white-space: nowrap; line-height: 1.5; max-width: 200px; text-align: center;"><span class="nodeLabel "><p>Statistics</p></span></div></foreignObject></g></g><g class="node default  " id="flowchart-CL2-10" transform="translate(352.62109375, 60)"><rect class="basic label-container" style="" x="-65.578125" y="-27" width="131.15625" height="54"/><g class="label" style="" transform="translate(-35.578125, -12)"><rect/><foreignObject width="71.15625" height="24"><div xmlns="http://www.w3.org/1999/xhtml" style="display: table-cell; white-space: nowrap; line-height: 1.5; max-width: 200px; text-align: center;"><span class="nodeLabel "><p>Cleanings</p></span></div></foreignObject></g></g><g class="node default  " id="flowchart-TR2-11" transform="translate(352.62109375, 164)"><rect class="basic label-container" style="" x="-62.609375" y="-27" width="125.21875" height="54"/><g class="label" style="" transform="translate(-32.609375, -12)"><rect/><foreignObject width="65.21875" height="24"><div xmlns="http://www.w3.org/1999/xhtml" style="display: table-cell; white-space: nowrap; line-height: 1.5; max-width: 200px; text-align: center;"><span class="nodeLabel "><p>Trainings</p></span></div></foreignObject></g></g><g class="node default  " id="flowchart-AN-12" transform="translate(748.81640625, 164)"><rect class="basic label-container" style="" x="-59.7890625" y="-27" width="119.578125" height="54"/><g class="label" style="" transform="translate(-29.7890625, -12)"><rect/><foreignObject width="59.578125" height="24"><div xmlns="http://www.w3.org/1999/xhtml" style="display: table-cell; white-space: nowrap; line-height: 1.5; max-width: 200px; text-align: center;"><span class="nodeLabel "><p>Analysis</p></span></div></foreignObject></g></g><g class="node default  " id="flowchart-WEB2-13" transform="translate(166.953125, 164)"><rect class="basic label-container" style="" x="-56.53125" y="-27" width="113.0625" height="54"/><g class="label" style="" transform="translate(-26.53125, -12)"><rect/><foreignObject width="53.0625" height="24"><div xmlns="http://www.w3.org/1999/xhtml" style="display: table-cell; white-space: nowrap; line-height: 1.5; max-width: 200px; text-align: center;"><span class="nodeLabel "><p>Web UI</p></span></div></foreignObject></g></g></g></g></g></svg>